<mxfile host="65bd71144e">
    <diagram id="ueg6NqKU8GOXhDqJm9ao" name="Page-1">
        <mxGraphModel dx="851" dy="1018" grid="1" gridSize="10" guides="1" tooltips="1" connect="1" arrows="1" fold="1" page="1" pageScale="1" pageWidth="600" pageHeight="600" background="#ffffff" math="0" shadow="0">
            <root>
                <mxCell id="0"/>
                <mxCell id="1" parent="0"/>
                <mxCell id="5" value="" style="group" parent="1" vertex="1" connectable="0">
                    <mxGeometry x="260" y="340" width="80" height="80" as="geometry"/>
                </mxCell>
                <mxCell id="3" value="S" style="ellipse;whiteSpace=wrap;html=1;aspect=fixed;fontSize=20;" parent="5" vertex="1">
                    <mxGeometry width="80" height="80" as="geometry"/>
                </mxCell>
                <mxCell id="37" value="" style="curved=1;endArrow=classic;html=1;exitX=0;exitY=1;exitDx=0;exitDy=0;entryX=0;entryY=1;entryDx=0;entryDy=0;" parent="5" source="3" target="3" edge="1">
                    <mxGeometry width="50" height="50" relative="1" as="geometry">
                        <mxPoint y="140" as="sourcePoint"/>
                        <mxPoint x="10" y="70" as="targetPoint"/>
                        <Array as="points">
                            <mxPoint x="-30" y="90"/>
                            <mxPoint x="-30" y="160"/>
                            <mxPoint x="20" y="140"/>
                        </Array>
                    </mxGeometry>
                </mxCell>
                <mxCell id="38" value="b" style="edgeLabel;html=1;align=center;verticalAlign=middle;resizable=0;points=[];fontSize=16;" parent="37" vertex="1" connectable="0">
                    <mxGeometry x="0.0694" y="5" relative="1" as="geometry">
                        <mxPoint as="offset"/>
                    </mxGeometry>
                </mxCell>
                <mxCell id="41" value="" style="curved=1;endArrow=classic;html=1;entryX=1;entryY=1;entryDx=0;entryDy=0;exitX=1;exitY=1;exitDx=0;exitDy=0;" parent="5" source="3" target="3" edge="1">
                    <mxGeometry width="50" height="50" relative="1" as="geometry">
                        <mxPoint x="70" y="68" as="sourcePoint"/>
                        <mxPoint x="50" y="100" as="targetPoint"/>
                        <Array as="points">
                            <mxPoint x="50" y="120"/>
                            <mxPoint x="90" y="150"/>
                            <mxPoint x="120" y="120"/>
                        </Array>
                    </mxGeometry>
                </mxCell>
                <mxCell id="42" value="c" style="edgeLabel;html=1;align=center;verticalAlign=middle;resizable=0;points=[];fontSize=16;" parent="41" vertex="1" connectable="0">
                    <mxGeometry x="0.0694" y="5" relative="1" as="geometry">
                        <mxPoint as="offset"/>
                    </mxGeometry>
                </mxCell>
                <mxCell id="4" value="" style="ellipse;whiteSpace=wrap;html=1;aspect=fixed;fillColor=none;" parent="5" vertex="1">
                    <mxGeometry x="5" y="5" width="70" height="70" as="geometry"/>
                </mxCell>
                <mxCell id="7" value="" style="group" parent="1" vertex="1" connectable="0">
                    <mxGeometry x="270" y="110" width="80" height="80" as="geometry"/>
                </mxCell>
                <mxCell id="8" value="R" style="ellipse;whiteSpace=wrap;html=1;aspect=fixed;fontSize=20;" parent="7" vertex="1">
                    <mxGeometry width="80" height="80" as="geometry"/>
                </mxCell>
                <mxCell id="9" value="" style="ellipse;whiteSpace=wrap;html=1;aspect=fixed;fillColor=none;" parent="7" vertex="1">
                    <mxGeometry x="5" y="5" width="70" height="70" as="geometry"/>
                </mxCell>
                <mxCell id="10" value="" style="group" parent="1" vertex="1" connectable="0">
                    <mxGeometry x="470" y="240" width="80" height="80" as="geometry"/>
                </mxCell>
                <mxCell id="11" value="Q" style="ellipse;whiteSpace=wrap;html=1;aspect=fixed;fontSize=20;" parent="10" vertex="1">
                    <mxGeometry width="80" height="80" as="geometry"/>
                </mxCell>
                <mxCell id="12" value="" style="ellipse;whiteSpace=wrap;html=1;aspect=fixed;fillColor=none;" parent="10" vertex="1">
                    <mxGeometry x="5" y="5" width="70" height="70" as="geometry"/>
                </mxCell>
                <mxCell id="23" style="edgeStyle=none;html=1;exitX=1;exitY=0.5;exitDx=0;exitDy=0;entryX=0;entryY=0;entryDx=0;entryDy=0;fontSize=16;" parent="1" source="8" target="11" edge="1">
                    <mxGeometry relative="1" as="geometry">
                        <mxPoint x="128" y="292" as="sourcePoint"/>
                        <mxPoint x="322" y="188" as="targetPoint"/>
                    </mxGeometry>
                </mxCell>
                <mxCell id="24" value="&lt;font style=&quot;font-size: 16px;&quot;&gt;c&lt;/font&gt;" style="edgeLabel;html=1;align=center;verticalAlign=middle;resizable=0;points=[];" parent="23" vertex="1" connectable="0">
                    <mxGeometry x="0.0351" relative="1" as="geometry">
                        <mxPoint as="offset"/>
                    </mxGeometry>
                </mxCell>
                <mxCell id="25" style="edgeStyle=none;html=1;exitX=-0.003;exitY=0.597;exitDx=0;exitDy=0;fontSize=16;exitPerimeter=0;entryX=0.917;entryY=0.232;entryDx=0;entryDy=0;entryPerimeter=0;" parent="1" source="11" target="3" edge="1">
                    <mxGeometry relative="1" as="geometry">
                        <mxPoint x="136" y="340" as="sourcePoint"/>
                        <mxPoint x="350" y="350" as="targetPoint"/>
                    </mxGeometry>
                </mxCell>
                <mxCell id="26" value="&lt;font style=&quot;font-size: 16px;&quot;&gt;b&lt;/font&gt;" style="edgeLabel;html=1;align=center;verticalAlign=middle;resizable=0;points=[];" parent="25" vertex="1" connectable="0">
                    <mxGeometry x="0.0351" relative="1" as="geometry">
                        <mxPoint as="offset"/>
                    </mxGeometry>
                </mxCell>
                <mxCell id="29" style="edgeStyle=none;html=1;exitX=0;exitY=1;exitDx=0;exitDy=0;entryX=1;entryY=0.5;entryDx=0;entryDy=0;fontSize=16;" parent="1" source="11" target="3" edge="1">
                    <mxGeometry relative="1" as="geometry">
                        <mxPoint x="117" y="356" as="sourcePoint"/>
                        <mxPoint x="272" y="403" as="targetPoint"/>
                    </mxGeometry>
                </mxCell>
                <mxCell id="30" value="&lt;font style=&quot;font-size: 16px;&quot;&gt;c&lt;/font&gt;" style="edgeLabel;html=1;align=center;verticalAlign=middle;resizable=0;points=[];" parent="29" vertex="1" connectable="0">
                    <mxGeometry x="0.0351" relative="1" as="geometry">
                        <mxPoint as="offset"/>
                    </mxGeometry>
                </mxCell>
                <mxCell id="33" style="edgeStyle=none;html=1;exitX=0.307;exitY=0.954;exitDx=0;exitDy=0;fontSize=16;entryX=0.318;entryY=0.043;entryDx=0;entryDy=0;entryPerimeter=0;exitPerimeter=0;" parent="1" source="8" target="3" edge="1">
                    <mxGeometry relative="1" as="geometry">
                        <mxPoint x="292" y="188" as="sourcePoint"/>
                        <mxPoint x="282" y="362" as="targetPoint"/>
                    </mxGeometry>
                </mxCell>
                <mxCell id="34" value="&lt;font style=&quot;font-size: 16px;&quot;&gt;b&lt;/font&gt;" style="edgeLabel;html=1;align=center;verticalAlign=middle;resizable=0;points=[];" parent="33" vertex="1" connectable="0">
                    <mxGeometry x="0.0351" relative="1" as="geometry">
                        <mxPoint as="offset"/>
                    </mxGeometry>
                </mxCell>
                <mxCell id="35" style="edgeStyle=none;html=1;exitX=0.693;exitY=0.037;exitDx=0;exitDy=0;fontSize=16;entryX=0.717;entryY=0.954;entryDx=0;entryDy=0;exitPerimeter=0;entryPerimeter=0;" parent="1" source="3" target="8" edge="1">
                    <mxGeometry relative="1" as="geometry">
                        <mxPoint x="128" y="292" as="sourcePoint"/>
                        <mxPoint x="280" y="160" as="targetPoint"/>
                    </mxGeometry>
                </mxCell>
                <mxCell id="36" value="&lt;font style=&quot;font-size: 16px;&quot;&gt;a&lt;/font&gt;" style="edgeLabel;html=1;align=center;verticalAlign=middle;resizable=0;points=[];" parent="35" vertex="1" connectable="0">
                    <mxGeometry x="0.0351" relative="1" as="geometry">
                        <mxPoint as="offset"/>
                    </mxGeometry>
                </mxCell>
                <mxCell id="43" value="" style="curved=1;endArrow=classic;html=1;exitX=1;exitY=0;exitDx=0;exitDy=0;" parent="1" source="8" edge="1">
                    <mxGeometry width="50" height="50" relative="1" as="geometry">
                        <mxPoint x="330" y="80" as="sourcePoint"/>
                        <mxPoint x="338" y="122" as="targetPoint"/>
                        <Array as="points">
                            <mxPoint x="380" y="80"/>
                            <mxPoint x="330" y="50"/>
                        </Array>
                    </mxGeometry>
                </mxCell>
                <mxCell id="45" value="a" style="edgeLabel;html=1;align=center;verticalAlign=middle;resizable=0;points=[];fontSize=16;" parent="43" vertex="1" connectable="0">
                    <mxGeometry x="-0.1112" relative="1" as="geometry">
                        <mxPoint as="offset"/>
                    </mxGeometry>
                </mxCell>
            </root>
        </mxGraphModel>
    </diagram>
</mxfile>